<svg width="61" height="60" viewBox="0 0 61 60" fill="none" xmlns="http://www.w3.org/2000/svg">
<path d="M60.0117 58.158L57.5705 49.8464C57.3671 49.4202 56.9602 48.994 56.5533 48.994H52.0779L49.8402 41.1086C49.6368 40.6824 49.2299 40.2562 48.823 40.2562H44.7545L42.5167 32.3709C42.3132 31.9447 41.9064 31.5184 41.4995 31.5184H37.6344L34.7864 23.8463C34.5829 23.2069 33.9727 22.9937 33.5658 23.2069C32.9556 23.42 32.752 24.0593 32.9555 24.4856L35.6001 31.5184H33.3623H26.4458H22.5806H18.3086C17.9018 31.5184 17.4949 31.7316 17.2915 32.3709L15.0537 40.2562H10.7817C10.3749 40.2562 9.96801 40.4693 9.76458 41.1086L7.52679 48.994H3.4582C3.05134 48.994 2.64448 49.2071 2.44105 49.8464L0 58.3711C0 58.7973 -4.96684e-05 59.0104 0.20338 59.2235C0.406809 59.4367 0.610288 59.6498 1.01715 59.6498H14.2401C14.6469 59.6498 15.0538 59.4367 15.2572 59.0105V59.2235C15.4606 59.4367 15.664 59.6498 16.0708 59.6498H29.2938C29.7006 59.6498 30.1075 59.4367 30.3109 59.0105V59.2235C30.5143 59.4367 30.7178 59.6498 31.1247 59.6498H44.3476C44.7544 59.6498 45.1613 59.4367 45.3647 59.0105V59.2235C45.5682 59.4367 45.7715 59.6498 46.1784 59.6498H59.4013C60.0116 59.6498 60.4184 59.2236 60.4184 58.5842C60.0116 58.3711 60.0117 58.158 60.0117 58.158ZM50.0436 48.994H48.4162H41.4995H39.6687L41.4995 42.6005H43.9407H48.0093L50.0436 48.994ZM37.2276 48.994L35.3966 42.6005H39.4652L37.6344 48.994H37.2276ZM26.4458 48.994H24.6149L26.4458 42.6005H28.8869H30.7178H32.9555L34.7864 48.994H33.159H26.4458ZM22.1737 48.994L20.3429 42.6005H24.4115L22.5806 48.994H22.1737ZM29.7006 40.4693L27.8697 34.0758H31.9383L30.1075 40.4693H29.7006ZM37.024 34.0758H40.6859L42.5167 40.4693H40.6859H33.7692H32.1418L33.9726 34.0758H37.024ZM19.1223 34.0758H22.5806H25.632L27.463 40.4693H25.632H18.7154H17.088L19.1223 34.0758ZM11.5954 42.6005H15.8675H18.1051L19.9361 48.994H18.3086H11.392H9.56108L11.5954 42.6005ZM2.23767 57.5186L4.06859 51.1251H8.13717H10.5782L12.4091 57.5186H2.23767ZM14.8503 58.158L12.816 51.1251H16.8846L14.8503 58.158ZM17.2915 57.5186L19.1223 51.1251H21.3601H23.1909H25.632L27.463 57.5186H17.2915ZM29.904 58.158L27.8697 51.1251H31.9383L29.904 58.158ZM32.3452 57.5186L34.1761 51.1251H36.4138H38.2447H40.6859L42.5167 57.5186H32.3452ZM44.9578 58.158L42.9235 51.1251H46.9921L44.9578 58.158ZM47.1955 57.5186L49.0264 51.1251H51.2641H55.5362L57.367 57.5186H47.1955Z" fill="#683195"/>
<path d="M32.9546 12.7643C34.9889 12.9774 38.6507 13.8299 39.8713 15.1086C41.0919 16.3873 41.9055 20.2234 42.109 22.3545C42.109 22.9939 42.5158 23.207 43.1261 23.207C43.7364 23.207 44.1432 22.7808 44.1432 22.3545C44.3467 20.2234 45.1605 16.3873 46.381 15.1086C47.6016 13.8299 51.2633 12.9774 53.2976 12.7643C53.9079 12.7643 54.1113 12.3381 54.1113 11.6987C54.1113 11.0594 53.7044 10.6331 53.2976 10.6331C51.2633 10.42 47.6016 9.56753 46.381 8.28883C45.1605 7.01013 44.3467 3.17405 44.1432 1.04288C44.1432 0.403533 43.7364 0.19043 43.1261 0.19043C42.5158 0.19043 42.109 0.61665 42.109 1.04288C41.9055 3.17405 41.0919 7.01013 39.8713 8.28883C38.6507 9.56753 34.9889 10.42 32.9546 10.6331C32.3443 10.6331 32.141 11.0594 32.141 11.6987C32.141 12.3381 32.3443 12.7643 32.9546 12.7643ZM41.2953 9.78067C42.109 8.9282 42.7192 7.64948 43.1261 6.15766C43.533 7.43636 44.1433 8.9282 44.957 9.78067C45.7707 10.6331 46.9913 11.2725 48.4153 11.6987C47.1948 12.1249 45.7707 12.7643 44.957 13.6167C44.1433 14.4692 43.533 15.7479 43.1261 17.2397C42.7192 15.961 42.109 14.4692 41.2953 13.6167C40.4816 12.7643 39.261 12.1249 37.837 11.6987C39.0576 11.2725 40.4816 10.6331 41.2953 9.78067Z" fill="#683195"/>
<path d="M16.4772 23.207C17.6978 23.4201 19.9355 23.8464 20.5458 24.4857C21.1561 25.1251 21.7663 27.4694 21.7663 28.7481C21.7663 29.3874 22.1732 29.6005 22.7835 29.6005C23.3938 29.6005 23.8006 29.1743 23.8006 28.7481C24.0041 27.4694 24.411 25.1251 25.0213 24.4857C25.6316 23.8464 27.8693 23.207 29.0899 23.207C29.7001 23.207 29.9035 22.7808 29.9035 22.1414C29.9035 21.5021 29.4967 21.0759 29.0899 21.0759C27.8693 20.8628 25.6316 20.4365 25.0213 19.7972C24.411 19.1578 23.8006 16.8135 23.8006 15.5348C23.8006 14.8955 23.3938 14.6824 22.7835 14.6824C22.1732 14.6824 21.7663 15.1086 21.7663 15.5348C21.5629 17.0266 21.1561 19.1578 20.5458 19.7972C19.9355 20.4365 17.6978 21.0759 16.4772 21.0759C15.8669 21.0759 15.6634 21.5021 15.6634 22.1414C15.46 22.7808 15.8669 23.207 16.4772 23.207ZM21.9698 21.289C22.3767 20.8628 22.58 20.4365 22.7835 20.0103C22.9869 20.6496 23.3938 21.0759 23.5972 21.289C24.0041 21.7152 24.4109 21.9283 24.8178 22.1414C24.2075 22.3546 23.8007 22.7808 23.5972 22.9939C23.1904 23.4201 22.9869 23.8464 22.7835 24.2726C22.58 23.6333 22.1733 23.207 21.9698 22.9939C21.563 22.5677 21.156 22.3546 20.7492 22.1414C21.156 21.9283 21.563 21.7152 21.9698 21.289Z" fill="#683195"/>
</svg>
