<svg width="41" height="40" viewBox="0 0 41 40" fill="none" xmlns="http://www.w3.org/2000/svg">
<path d="M32.4028 15.3821C32.5347 14.5904 32.6666 13.9305 32.6666 13.1388C32.6666 6.40965 27.2569 1 20.6597 1C14.0625 1 8.65283 6.40965 8.65283 13.1388C8.65283 13.9305 8.78471 14.5904 8.91665 15.3821C4.29861 17.0974 1 21.5834 1 26.8612C1 33.5904 6.40984 39 13.0071 39C15.9098 39 18.5486 37.9443 20.6597 36.229C22.7708 37.9443 25.4098 39 28.3126 39C34.9098 39 40.3194 33.5904 40.3194 26.8612C40.1875 21.4515 36.8889 17.0974 32.4028 15.3821ZM9.97227 13.0071C9.97227 7.06956 14.7222 2.18769 20.6597 2.18769C26.5972 2.18769 31.3472 7.06956 31.3472 13.0071C31.3472 13.6668 31.3472 14.3264 31.2153 14.8541C30.2917 14.5903 29.3681 14.4582 28.3126 14.4582C25.4098 14.4582 22.7708 15.5139 20.6597 17.2292C18.5486 15.5139 15.9098 14.4582 13.0071 14.4582C12.0834 14.4582 11.1597 14.5903 10.2361 14.8541C9.97221 14.3264 9.97227 13.6668 9.97227 13.0071ZM23.5626 26.7291C23.5626 29.6319 22.375 32.2707 20.5278 34.2499C18.6806 32.2707 17.493 29.6319 17.493 26.7291C17.493 26.0694 17.4932 25.4098 17.6251 24.882C18.5487 25.1459 19.4723 25.2779 20.5278 25.2779C21.4514 25.2779 22.375 25.1459 23.2986 24.882C23.4306 25.5418 23.5626 26.0694 23.5626 26.7291ZM20.5278 23.9585C19.6042 23.9585 18.8125 23.8263 18.0208 23.6943C18.5486 21.9791 19.3403 20.5279 20.5278 19.3404C21.7153 20.5279 22.507 22.111 23.0348 23.6943C22.2431 23.8263 21.4514 23.9585 20.5278 23.9585ZM16.8333 23.1667C13.7986 21.9792 11.4237 19.3402 10.5001 16.1736C11.2917 15.9097 12.0834 15.9098 13.0071 15.9098C15.514 15.9098 17.889 16.8334 19.7362 18.2848C18.2848 19.7362 17.3611 21.3195 16.8333 23.1667ZM21.5834 18.2848C23.4306 16.8334 25.8056 15.9098 28.3126 15.9098C29.2362 15.9098 30.0279 16.0416 30.8195 16.1736C29.8959 19.3402 27.5209 21.9792 24.3542 23.1667C23.8264 21.3195 22.7709 19.7362 21.5834 18.2848ZM2.18753 26.7291C2.18753 22.1111 5.0904 18.1528 9.04873 16.5695C10.1043 20.2639 12.8751 23.1667 16.4376 24.4861C16.3056 25.2778 16.1736 25.9375 16.1736 26.7291C16.1736 30.0277 17.493 32.9307 19.4722 35.1737C17.625 36.6251 15.25 37.5485 12.7431 37.5485C7.06947 37.5485 2.18753 32.6666 2.18753 26.7291ZM28.1806 37.5485C25.6737 37.5485 23.2986 36.6251 21.4514 35.1737C23.5625 32.9307 24.75 30.0277 24.75 26.7291C24.75 25.9375 24.6181 25.2778 24.4861 24.4861C28.0486 23.1667 30.8194 20.2639 31.875 16.5695C35.8333 18.1528 38.7362 22.1111 38.7362 26.7291C38.8681 32.6666 34.1181 37.5485 28.1806 37.5485Z" fill="#683195" stroke="#683195" stroke-width="0.25"/>
</svg>
