<svg width="32" height="38" viewBox="0 0 32 38" fill="none" xmlns="http://www.w3.org/2000/svg">
<path d="M30.2594 6.22922C30.1255 6.22922 29.9916 6.22902 29.7238 6.36085C29.5899 6.36085 28.7866 6.62445 27.5816 6.62445C24.7699 6.62445 20.7531 5.56981 17.4058 0.692106C16.7364 -0.230702 15.1298 -0.230702 14.4603 0.692106C10.5775 6.22896 5.62344 6.62445 4.28453 6.62445C3.48118 6.62445 2.81173 6.49268 2.27616 6.36085C1.20504 5.96536 0 6.88824 0 8.0747V18.4891C0 33.3859 14.862 37.7363 15.5314 38C15.6653 38 15.7992 38 15.9331 38C16.067 38 16.2009 38 16.4687 38C17.1381 37.8682 32 33.3859 32 18.4891V8.0747C32 7.02006 31.1967 6.22922 30.2594 6.22922ZM30.6611 18.3575C30.6611 32.3314 16.7364 36.4182 16.0669 36.5501H15.9331H15.7992C15.2636 36.4182 1.20505 32.3314 1.20505 18.3575V7.94274C1.20505 7.67909 1.47287 7.54751 1.74065 7.54751C2.4101 7.81117 3.21343 7.94274 4.15067 7.94274C5.75737 7.94274 11.2469 7.41543 15.5314 1.35126C15.6653 1.0876 16.067 1.0876 16.2009 1.35126C19.9498 6.75628 24.3682 7.81111 27.4477 7.81111C28.7866 7.81111 29.7239 7.54751 29.8578 7.54751H29.9916C30.2594 7.54751 30.5 7.86817 30.5 8L30.6611 18.3575Z" fill="#683195"/>
<path d="M21.72 15.7H20.18V11.99C20.18 9.81997 18.22 8 15.98 8C13.67 8 11.78 9.81997 11.78 11.99V15.7H10.24C8.98001 15.7 8 16.68 8 17.94L8.84001 26.7601C8.84001 28.0201 9.88998 29.0001 11.08 29.0001H20.95C22.21 29.0001 23.1901 28.0201 23.1901 26.7601L24.03 17.94C23.96 16.68 22.98 15.7 21.72 15.7ZM12.41 12.06C12.41 10.31 14.02 8.77007 15.91 8.77007C17.8 8.77007 19.41 10.24 19.41 12.06V15.7701H12.41V12.06ZM22.42 26.7601C22.42 27.6001 21.72 28.3001 20.88 28.3001H11.01C10.1 28.3001 9.46999 27.6001 9.46999 26.7601L8.62998 17.94C8.62998 17.1 9.32999 16.4 10.17 16.4H21.72C22.63 16.4 23.26 17.1001 23.26 17.8701L22.42 26.7601Z" fill="#683195" stroke="#683195"/>
<path d="M15.9797 20.5298C15.0697 20.5298 14.2997 21.2299 14.2997 22.2099L14.6497 25.1499C14.6497 25.3599 14.7897 25.4298 14.9997 25.4298H16.8897C17.0997 25.4298 17.2397 25.2899 17.2397 25.1499L17.5897 22.1398C17.5897 21.2998 16.8897 20.5298 15.9797 20.5298ZM16.6097 24.7999H15.3497L14.9997 22.2099C14.9997 21.7199 15.4197 21.2999 15.9797 21.2999C16.5397 21.2999 16.9597 21.7198 16.9597 22.1398L16.6097 24.7999Z" fill="#683195" stroke="#683195"/>
</svg>
