<svg width="71" height="60" viewBox="0 0 71 60" fill="none" xmlns="http://www.w3.org/2000/svg">
<path d="M65.7346 28.6114C65.2464 28.3557 64.5139 28.3557 64.0257 29.1229C63.7816 29.6344 63.7818 30.4016 64.5141 30.9131C67.4434 32.7032 69.1521 37.3063 68.1757 41.6537C67.4434 45.7454 65.0022 48.3026 61.3406 49.0698C60.8524 49.0698 60.3642 49.8369 60.3642 50.3484V55.7188C60.3642 56.486 59.8759 56.9974 59.1436 56.9974H16.9136C16.1813 56.9974 15.6931 56.486 15.6931 55.7188V53.9287C15.6931 53.1615 15.2049 52.65 14.4726 52.65C13.7403 52.65 13.2521 53.1615 13.2521 53.9287V55.7188C13.2521 57.7646 14.9608 59.5547 16.9136 59.5547H59.1436C61.0965 59.5547 62.8052 57.7646 62.8052 55.7188V51.3714C66.955 50.0927 69.8844 46.7683 70.6167 42.1652C71.5932 36.5392 69.6403 30.913 65.7346 28.6114Z" fill="#683195"/>
<path d="M15.936 48.5584L55.7249 37.8177C57.6777 37.3063 58.6541 35.2604 58.1659 33.4703L57.1898 29.3787C61.8277 26.5657 63.0483 20.9397 62.0719 16.5923C61.0954 11.7334 57.4337 6.87444 51.5752 6.87444L50.5987 2.78284C50.1105 0.73701 48.1578 -0.285906 46.4491 0.225552L6.65985 10.9662C4.70701 11.4777 3.73059 13.5235 4.2188 15.3136L5.19528 19.1496C0.55729 21.9626 -0.663234 27.5886 0.313185 31.936C1.28961 36.7949 4.9513 41.6537 10.8098 41.6537L11.786 45.4896C12.2742 47.024 13.4948 48.3026 15.2035 48.3026C15.2035 48.814 15.6919 48.8141 15.936 48.5584ZM13.983 45.4896L12.7625 40.6307C12.5184 40.1192 12.0302 39.6079 11.542 39.6079C6.65985 40.1193 3.48661 36.0277 2.51019 31.936C1.77787 28.3558 2.51025 23.4969 7.14824 21.451C7.63645 21.1953 7.88038 20.6839 7.88038 19.9167L6.65985 15.0578C6.41575 14.5463 6.90408 13.7792 7.39229 13.7792L47.1812 3.03851C47.6694 2.78278 48.4017 3.29436 48.4017 3.80582L49.6223 8.66458C49.8664 9.17603 50.3546 9.68756 50.8428 9.68756C55.7249 9.43183 58.8984 13.2678 59.8749 17.3594C60.6072 20.9396 59.8747 25.5427 55.4808 27.8443C54.9926 28.1 54.7487 28.6115 54.7487 29.3787L55.9692 34.2375C56.2133 34.7489 55.725 35.5161 55.2368 35.5161L15.4476 46.2568C14.7153 46.2568 13.983 46.0011 13.983 45.4896Z" fill="#683195"/>
<path d="M39.9043 18.7957L34.2225 20.318L30.8312 15.2865C30.6068 14.8705 30.092 14.6587 29.5587 14.8128C29.0255 14.967 28.7938 15.3946 28.6982 15.9032L28.25 22.0446L22.6271 23.7906C22.2005 23.9139 21.8622 24.3724 21.8732 24.8501C21.8843 25.3279 22.1382 25.8558 22.6236 25.9559L28.1513 28.2054L28.0231 34.2543C28.0047 34.6203 28.1997 34.9245 28.5013 35.198C28.8029 35.4716 29.1523 35.491 29.4722 35.3985C29.6855 35.3368 29.8695 35.1635 30.0534 34.9901L33.8629 30.2816L39.4385 32.2768C39.6812 32.3269 39.9239 32.3769 40.1372 32.3152C40.4572 32.2227 40.7182 31.9066 40.8727 31.6215C40.9977 31.2246 40.9094 30.8896 40.7145 30.5852L37.6432 25.4613L41.2874 20.5602C41.6257 20.1017 41.6146 19.6238 41.3902 19.2077C40.8459 18.8841 40.3309 18.6724 39.9043 18.7957ZM36.4 25.0991C36.2162 25.2725 36.2751 25.4959 36.3339 25.7194L39.6296 31.2596L33.6754 29.1335C33.4326 29.0834 33.2192 29.1451 33.0354 29.3185L28.9647 34.3429L29.0817 27.816C29.1295 27.5617 28.964 27.3691 28.7213 27.319L22.9214 24.9078L28.971 23.0386C29.1843 22.9769 29.3682 22.8037 29.416 22.5494L29.8825 16.0419L33.4687 21.3778C33.6342 21.5704 33.8769 21.6203 34.0902 21.5586L40.1987 19.913L36.4 25.0991Z" fill="#683195" stroke="#683195" stroke-width="0.5"/>
</svg>
